<?xml version="1.0" standalone="no"?>
<!DOCTYPE svg PUBLIC "-//W3C//DTD SVG 20010904//EN"
 "http://www.w3.org/TR/2001/REC-SVG-20010904/DTD/svg10.dtd">
<svg version="1.0" xmlns="http://www.w3.org/2000/svg"
 width="112.000000pt" height="112.000000pt" viewBox="0 0 112.000000 112.000000"
 preserveAspectRatio="xMidYMid meet">
<metadata>
Created by potrace 1.11, written by Peter Selinger 2001-2013
</metadata>
<g transform="translate(0.000000,112.000000) scale(0.100000,-0.100000)"
fill="#000000" stroke="none">
<path d="M252 1098 c-7 -7 -33 -12 -59 -13 l-47 0 -3 -40 c-1 -22 -3 -47 -4
-55 0 -8 0 -20 1 -25 4 -20 0 -35 -10 -35 -5 0 -10 8 -10 17 0 26 -20 2 -22
-27 -1 -14 2 -35 6 -47 8 -25 -3 -30 -22 -11 -18 18 -16 -26 4 -63 18 -36 9
-53 -13 -24 -15 19 -15 19 -8 -10 3 -16 18 -42 32 -57 31 -33 25 -46 -10 -23
-24 16 -25 15 -20 -4 3 -11 16 -32 29 -46 29 -32 30 -35 2 -35 -21 0 -21 0 -2
-21 10 -12 32 -28 48 -36 22 -11 26 -17 15 -23 -7 -5 -17 -6 -21 -4 -4 3 -8 0
-8 -5 0 -6 4 -11 9 -11 5 0 7 -34 4 -77 -4 -69 -2 -83 20 -123 13 -25 30 -44
37 -42 6 1 9 -2 6 -7 -8 -12 23 -31 132 -79 99 -43 182 -100 202 -137 12 -23
13 -23 59 24 51 51 105 85 197 121 101 41 132 67 166 139 17 36 19 54 13 108
-4 43 -3 68 5 78 10 12 8 13 -9 10 -29 -5 -27 22 2 31 24 7 57 33 57 45 0 4
-11 6 -25 4 -16 -1 -25 3 -25 11 0 8 6 14 14 14 15 0 56 46 56 62 0 5 -9 6
-20 3 -23 -7 -27 7 -6 24 8 7 19 25 25 42 8 24 7 29 -5 29 -11 0 -13 6 -9 20
3 11 9 32 11 47 5 27 5 27 -15 8 -27 -24 -34 -16 -19 21 6 17 8 43 4 58 -7 27
-8 28 -21 10 -17 -23 -17 -24 -23 105 l-2 43 -37 -5 c-24 -2 -48 2 -65 11 -31
18 -47 10 -28 -13 7 -8 11 -15 9 -15 -2 -1 -49 -7 -104 -14 -102 -13 -308 -14
-380 -2 -100 18 -96 16 -85 37 12 22 -8 27 -28 7z m723 -216 c17 -15 20 -52 5
-52 -5 0 -10 6 -10 14 0 8 -7 17 -16 20 -12 5 -14 1 -8 -17 4 -12 13 -31 20
-42 18 -25 18 -39 -1 -32 -25 10 -25 -8 0 -46 32 -46 32 -67 0 -37 l-24 23 3
-34 c2 -19 7 -42 11 -51 9 -24 0 -23 -26 3 -17 17 -20 32 -20 102 1 78 2 94
17 159 6 29 6 29 49 -10z m-784 16 c0 -7 3 -22 6 -33 12 -47 12 -204 0 -217
-7 -7 -16 -21 -20 -30 -3 -10 -11 -18 -17 -18 -13 0 -13 23 0 36 6 6 12 25 15
43 l4 33 -23 -21 c-20 -19 -24 -20 -29 -7 -4 9 -2 16 3 16 12 0 40 53 40 76 0
16 -1 16 -14 -2 -26 -34 -26 -9 -1 41 27 52 26 68 0 41 -29 -29 -38 -5 -9 25
30 31 44 36 45 17z"/>
</g>
</svg>
